<svg width="35" height="26" viewBox="0 0 35 26" fill="none" xmlns="http://www.w3.org/2000/svg">
<path fill-rule="evenodd" clip-rule="evenodd" d="M4.08988 0.299886C2.76409 0.754916 1.74304 1.49233 1.08106 2.47308C-0.0186638 4.10193 -0.0416938 4.34039 0.0187369 13.466L0.0734561 21.7516L0.732851 22.9267C1.16637 23.6994 1.70269 24.335 2.29889 24.7826C3.87488 25.9658 4.15437 26 12.2598 26C19.1089 26 19.5511 25.9801 20.5082 25.6287C21.9341 25.1053 23.2033 23.9257 23.8409 22.5313C24.2949 21.539 24.3719 21.1129 24.448 19.1778L24.535 16.9608H23.0362H21.5374V18.9701C21.5374 21.2732 21.276 21.9671 20.1136 22.749L19.4463 23.1979L12.6156 23.2546C8.15771 23.2919 5.55349 23.2447 5.11886 23.1192C4.18274 22.8488 3.49221 22.2638 3.09425 21.4043C2.7792 20.7235 2.75304 20.077 2.75304 12.9836C2.75304 5.89024 2.7792 5.24376 3.09425 4.56293C3.49221 3.70349 4.18274 3.11847 5.11886 2.84802C5.55349 2.72256 8.15366 2.67537 12.6018 2.71262C19.2547 2.76794 19.4343 2.77896 20.0705 3.16729C21.226 3.87252 21.5374 4.68532 21.5374 6.99717V9.0064H23.038H24.5388L24.4401 6.76071C24.3574 4.88165 24.2662 4.35431 23.8817 3.53012C23.2571 2.19142 22.2631 1.16204 21.0143 0.560213L19.9714 0.0576362L12.5096 0.014429C5.70088 -0.0249817 4.9641 -3.35334e-05 4.08988 0.299886ZM11.266 5.6912C11.1365 5.74254 11.0357 6.09416 11.0357 6.49496C11.0357 7.09805 10.9613 7.23526 10.551 7.38839C8.97058 7.97792 8.19456 9.19622 8.30603 10.9133C8.43279 12.8656 9.70865 13.9772 12.0715 14.1938C13.3702 14.3127 13.7993 14.5734 13.7993 15.2434C13.7993 15.9577 13.3345 16.2377 12.1493 16.2377C11.21 16.2377 11.0409 16.182 10.7763 15.7858C10.5399 15.4318 10.319 15.3338 9.75692 15.3338C8.68998 15.3338 8.45637 15.4759 8.45637 16.1247C8.45637 17.1496 9.78953 18.5879 10.7397 18.5879C10.9313 18.5879 11.0317 18.8204 11.0713 19.3562L11.1278 20.1246H12.2333H13.3387L13.3975 19.4014C13.4511 18.743 13.5414 18.6298 14.4069 18.1359C15.7342 17.3785 16.2287 16.4991 16.1486 15.0389C16.0373 13.0145 14.8552 11.9085 12.6463 11.7621C11.1453 11.6625 10.6672 11.3855 10.6672 10.6157C10.6672 9.93128 11.2749 9.54874 12.3621 9.54874C13.0931 9.54874 13.2881 9.62359 13.5399 10.0007C13.8041 10.3964 13.974 10.4527 14.9062 10.4527C16.1353 10.4527 16.2659 10.3022 15.9126 9.29384C15.6062 8.41939 14.8359 7.62557 14.0453 7.36959C13.4916 7.19025 13.4308 7.10221 13.4308 6.48068C13.4308 6.01859 13.3347 5.75483 13.1394 5.68125C12.7985 5.5529 11.5993 5.55923 11.266 5.6912ZM28.1835 8.21728C27.5405 9.01923 27.7306 9.56538 29.0691 10.7609L29.9203 11.5211L24.818 11.5292C19.7385 11.5374 19.7132 11.5393 19.2139 11.9608C18.6155 12.4657 18.5406 13.3351 19.0479 13.8852C19.3693 14.2336 19.6064 14.2491 24.6059 14.2491C27.4782 14.2491 29.8282 14.2882 29.8282 14.3357C29.8282 14.3834 29.3722 14.8558 28.8149 15.3855C28.0722 16.0915 27.8016 16.4809 27.8016 16.8437C27.8016 17.5253 28.5527 18.2263 29.283 18.2263C29.8824 18.2263 30.3115 17.881 33.6512 14.7121C35.3036 13.1442 35.3766 12.7425 34.2039 11.669C30.3496 8.14026 29.8407 7.74091 29.2005 7.74091C28.7336 7.74091 28.4641 7.86728 28.1835 8.21728Z" fill="white"/>
</svg>
