<svg width="39" height="35" viewBox="0 0 39 35" fill="none" xmlns="http://www.w3.org/2000/svg">
<path fill-rule="evenodd" clip-rule="evenodd" d="M18.982 0.0208635C17.0523 0.27899 15.5236 1.86019 15.1333 4.00168C14.7676 6.00843 15.6902 8.67302 17.2676 10.1656C18.0399 10.8965 18.6239 11.164 19.4519 11.1663C19.9996 11.1678 20.3512 11.0707 20.8868 10.7702C21.2762 10.5516 22.0925 9.75684 22.4317 9.26599C23.128 8.25827 23.6164 7.03713 23.7966 5.85354C23.8928 5.22161 23.8346 4.09797 23.6757 3.52233C23.4995 2.88345 23.0545 2.02892 22.6444 1.54197C22.0542 0.841112 21.1584 0.27575 20.3574 0.0984706C19.9527 0.00893865 19.3327 -0.0260856 18.982 0.0208635ZM15.5137 10.2818C11.9811 11.2341 10.4445 12.3012 9.73739 14.2929C9.47281 15.0382 9.32604 16.2083 9.32074 17.6139L9.31897 18.0902L9.59519 18.459C10.0348 19.0459 10.4423 19.4924 11.0674 20.0723C14.231 23.007 18.7417 24.0473 23.034 22.832C24.6516 22.3739 26.3865 21.4157 27.7201 20.2437C28.1572 19.8596 28.7982 19.1851 29.1535 18.7353L29.4491 18.3613L29.4245 17.2095C29.3973 15.9405 29.3297 15.4457 29.0883 14.7477C28.3812 12.7037 26.6823 11.4312 23.1623 10.3092C22.7472 10.1769 22.3992 10.0765 22.3891 10.0862C22.379 10.0959 21.8999 11.3008 21.3245 12.7637C20.749 14.2267 20.2634 15.4378 20.2453 15.4551C20.2272 15.4724 20.2125 14.894 20.2125 14.1697V12.853L20.3799 12.413C20.4721 12.1711 20.5628 11.9362 20.5815 11.891C20.6133 11.8142 20.5441 11.8088 19.5307 11.8088C18.9341 11.8088 18.4459 11.8185 18.4459 11.8302C18.4459 11.8419 18.5343 12.0884 18.6422 12.378L18.8385 12.9045V14.1407C18.8385 14.834 18.8193 15.377 18.7947 15.377C18.7706 15.377 18.4575 14.7168 18.0989 13.9098C16.567 10.4626 16.3969 10.095 16.3307 10.0876C16.2932 10.0834 15.9254 10.1708 15.5137 10.2818ZM6.50889 20.868L4.80294 22.1739L4.39458 21.9729C4.16739 21.861 3.81585 21.7356 3.6022 21.6901C2.15778 21.3826 0.632304 22.2211 0.140232 23.5931C-0.00992116 24.0118 -0.0461347 24.7702 0.0640269 25.1899C0.335775 26.2256 1.19975 27.0686 2.25901 27.3317C2.63739 27.4257 3.30759 27.4358 3.67595 27.3531C4.09069 27.2599 4.70112 26.9589 5.00663 26.6969C5.8042 26.0129 6.19622 24.9057 5.96888 23.979L5.89651 23.6841L6.14794 23.4808C6.28622 23.369 6.75164 23.011 7.18228 22.6852L7.96524 22.0929L8.67891 22.7628C9.07141 23.1312 9.58027 23.5763 9.80967 23.7519C10.8655 24.5598 12.4884 25.4661 13.7125 25.9313C15.0439 26.4373 16.6678 26.8176 17.8571 26.9021C18.0865 26.9183 18.3239 26.9414 18.3846 26.9534L18.495 26.9752V28.1732V29.3712L18.2739 29.4619C17.0145 29.9783 16.2619 31.315 16.5031 32.6073C16.8128 34.2672 18.5282 35.326 20.2323 34.909C21.7719 34.5322 22.7575 33.0482 22.4485 31.5719C22.3223 30.9685 22.0818 30.5432 21.6125 30.0932C21.3017 29.7952 21.1329 29.6761 20.814 29.5298L20.4097 29.3443L20.4092 28.1598L20.4087 26.9752L20.5191 26.9532C20.5799 26.9411 20.8062 26.9178 21.0221 26.9014C22.8258 26.7645 25.1961 26.0537 26.8983 25.1393C28.2145 24.4322 29.7382 23.3026 30.5883 22.4038L30.8917 22.083L31.6735 22.6775C32.9471 23.6458 33.0165 23.6943 33.0771 23.6586C33.1172 23.6349 33.1236 23.6517 33.0985 23.7144C32.9236 24.1505 32.9374 24.9311 33.1294 25.4558C33.3929 26.1761 33.964 26.7929 34.6635 27.1129C35.1636 27.3416 35.4914 27.4142 36.0129 27.4116C36.8397 27.4074 37.5177 27.1322 38.1282 26.5529C38.768 25.946 39.0392 25.2599 38.9955 24.3587C38.9588 23.6037 38.674 22.9883 38.1208 22.4689C37.2089 21.6128 35.8779 21.3904 34.742 21.9043C34.5716 21.9815 34.3687 22.0877 34.2911 22.1406L34.1501 22.2367L32.4046 20.9078C31.4446 20.1769 30.6297 19.5789 30.5938 19.5789C30.558 19.5789 30.375 19.7691 30.1872 20.0015C28.2858 22.3549 25.7618 23.965 22.7886 24.721C21.5083 25.0466 19.9088 25.1936 18.6211 25.1041C14.6054 24.8248 11.2214 23.0954 8.71924 20.0436C8.49911 19.7751 8.29562 19.557 8.26697 19.5587C8.23836 19.5606 7.44721 20.1497 6.50889 20.868Z" fill="white"/>
</svg>
