<svg width="27" height="30" viewBox="0 0 27 30" fill="none" xmlns="http://www.w3.org/2000/svg">
<path fill-rule="evenodd" clip-rule="evenodd" d="M10.1116 0.0902376C9.56092 0.223141 9.02667 0.517381 8.63152 0.905481C8.22049 1.30912 7.98561 1.6818 7.80006 2.22455L7.66984 2.60561L7.45354 2.58738C7.16363 2.56288 6.91452 2.67426 6.81052 2.87476C6.5874 3.30495 6.82033 3.69774 7.34395 3.77431C7.9641 3.86506 8.62287 4.28775 8.97987 4.82405C9.24355 5.22018 9.48096 5.32671 9.80197 5.19298C10.0451 5.09168 10.1351 4.94781 10.1351 4.66019C10.1351 4.31085 9.62935 3.63871 9.08605 3.26597C8.83935 3.09672 8.8293 3.07837 8.85611 2.84727C8.92325 2.26957 9.41958 1.62956 10.0174 1.34992C10.4846 1.13136 11.1994 1.13271 11.6708 1.35308C12.1355 1.57041 12.4543 1.88048 12.6773 2.33219L12.869 2.72034L12.8847 8.95338L12.9005 15.1864L12.679 15.146C11.981 15.0188 11.1767 14.6405 10.628 14.1816C10.1403 13.7736 9.9506 13.6837 9.71796 13.7502C9.47426 13.8199 9.28847 14.0711 9.28847 14.3308C9.28847 14.4841 9.33927 14.5883 9.49131 14.7467C10.2263 15.5121 11.5084 16.1587 12.6217 16.3252L12.8984 16.3665V21.3108C12.8984 24.694 12.8779 26.3532 12.8334 26.5658C12.6075 27.646 11.7006 28.5503 10.6173 28.7756C9.51347 29.0052 8.33491 28.5298 7.6833 27.5922C7.50539 27.3362 7.54925 27.2601 7.87555 27.2584C8.19227 27.2568 8.65192 27.0878 8.77962 26.9259C8.9587 26.6988 8.93824 26.4068 8.72858 26.1978C8.53386 26.0037 8.49394 25.9995 7.72457 26.0936C7.03581 26.1778 6.46452 26.0801 5.79657 25.7638C4.80573 25.2946 3.96557 24.0641 3.96252 23.0776L3.96181 22.8548L4.32927 22.9017C4.86817 22.9704 5.6965 22.9528 6.16561 22.8625C6.81669 22.7373 7.0568 22.3922 6.81604 21.928C6.67312 21.6524 6.47839 21.6112 5.84066 21.7217C4.55621 21.9444 3.36277 21.5836 2.40802 20.6841C1.86442 20.1718 1.55958 19.7001 1.33323 19.0207C1.1983 18.6157 1.17666 18.4517 1.17472 17.8189C1.17213 16.9711 1.24962 16.6455 1.62807 15.9135C2.07231 15.0545 2.85897 14.4044 3.93241 14.0096C4.27294 13.8843 4.36331 13.8224 4.45603 13.6512C4.57996 13.4224 4.55891 13.2241 4.38882 13.0182C4.2215 12.8156 3.97386 12.7775 3.59141 12.8955L3.25612 12.9989L3.07944 12.7765C2.82263 12.4532 2.56183 11.8625 2.456 11.3646C2.29179 10.5921 2.44736 9.72817 2.87837 9.01898C3.06745 8.7078 3.69471 8.02845 3.7929 8.02845C3.818 8.02845 3.91771 8.14318 4.01443 8.28335C4.3686 8.79662 5.12092 9.37683 5.43223 9.37683C5.62607 9.37683 5.87265 9.22388 5.94931 9.05603C6.08219 8.76525 6.03791 8.6106 5.74877 8.3554C4.91408 7.61878 4.67144 7.26855 4.54998 6.6249C4.47325 6.21863 4.36872 6.0621 4.11932 5.98003C3.71135 5.84577 3.37388 6.12125 3.37388 6.58856V6.88526L2.98743 7.17047C2.25387 7.71182 1.63536 8.6337 1.36709 9.58536C1.19536 10.1948 1.1833 11.2058 1.34063 11.8098C1.46433 12.2847 1.75248 12.9281 2.00776 13.2992L2.18537 13.5575L1.9124 13.7743C1.07248 14.4413 0.48778 15.3165 0.161772 16.3945C0.0257829 16.8442 0.00508772 17.019 0.00026668 17.7602C-0.00573022 18.6841 0.0882213 19.1811 0.403118 19.8908C0.832131 20.8577 1.73996 21.8619 2.56365 22.281L2.78595 22.394L2.78695 22.8765C2.78941 24.0197 3.21884 25.055 4.041 25.8997C4.6023 26.4764 5.42846 26.9849 6.00487 27.1086C6.10994 27.1311 6.19595 27.1786 6.19595 27.2139C6.19595 27.2493 6.30007 27.4929 6.42736 27.7551C6.8709 28.6688 7.79042 29.4682 8.78867 29.8079C9.23244 29.9589 9.3602 29.976 10.0469 29.9764C10.729 29.9768 10.8618 29.9594 11.2816 29.8151C12.0911 29.5368 12.8184 29.0002 13.3573 28.2835L13.4895 28.1076L13.59 28.2542C13.6452 28.3348 13.8354 28.5542 14.0126 28.7418C15.5979 30.4197 18.2536 30.4194 19.8463 28.7409C20.2516 28.3137 20.5056 27.9242 20.6679 27.4805C20.7735 27.1921 20.8151 27.1413 20.9744 27.1071C21.5484 26.9841 22.3846 26.4677 22.9297 25.8997C23.7494 25.0456 24.1853 23.9984 24.1863 22.8809L24.1867 22.4028L24.4953 22.2269C26.0961 21.3145 27.1155 19.3829 26.9895 17.5012C26.8894 16.0066 26.204 14.6826 25.0602 13.7743L24.7872 13.5575L24.9648 13.2992C25.2201 12.9281 25.5083 12.2847 25.632 11.8098C25.7837 11.2275 25.7722 10.2047 25.6072 9.59451C25.3573 8.6701 24.7305 7.72759 24.003 7.18225L23.6281 6.90126L23.625 6.21904C23.6222 5.63267 23.5991 5.47192 23.4609 5.07432C23.2492 4.46538 23.061 4.15561 22.6214 3.69217C22.2141 3.26286 21.789 2.98474 21.2024 2.7639C20.8636 2.63633 20.6962 2.61265 20.0501 2.60104L19.2943 2.58744L19.1683 2.21546C18.801 1.13131 17.9417 0.347837 16.8344 0.0875995C15.7632 -0.164137 14.6949 0.141183 13.8862 0.930162L13.4863 1.32031L13.0743 0.91832C12.272 0.135672 11.184 -0.168476 10.1116 0.0902376ZM16.9821 1.36586C17.7303 1.70742 18.1879 2.50208 18.1894 3.46236C18.1898 3.70132 18.3939 3.95253 18.6233 3.99626C18.6985 4.01057 18.969 3.95904 19.2245 3.88165C19.9155 3.67242 20.498 3.71023 21.0918 4.00283C22.0667 4.48332 22.6145 5.5326 22.4245 6.5552C22.292 7.26767 22.2894 7.32137 22.3809 7.46067C22.4297 7.53488 22.644 7.69728 22.8572 7.82162C24.7676 8.93568 25.1513 11.3991 23.6678 13.0261C23.4694 13.2438 23.2897 13.4906 23.2686 13.5746C23.1991 13.8506 23.3754 14.0929 23.844 14.3658C25.6997 15.4465 26.3555 17.7901 25.3434 19.7242C25.0612 20.2633 24.2141 21.0793 23.6509 21.3544C22.979 21.6827 22.9778 21.6849 23.0006 22.5207C23.0228 23.3324 22.9631 23.6534 22.6786 24.2534C22.2975 25.057 21.5118 25.7169 20.6297 25.9744C19.8296 26.208 19.8419 26.1979 19.6779 26.7492C19.2464 28.1994 17.8067 29.0774 16.3554 28.7756C15.272 28.5503 14.3651 27.646 14.1392 26.5658C14.1027 26.3913 14.0742 25.6655 14.0742 24.9097V23.5641H14.4399C14.8006 23.5641 14.8095 23.5681 15.1086 23.8627L15.4117 24.1612L15.3266 24.4343C15.1604 24.9671 15.3203 25.6509 15.716 26.1003C16.1943 26.6436 17.1104 26.8106 17.7889 26.4784C18.4196 26.1696 18.7459 25.6357 18.7459 24.9125C18.7459 24.4131 18.6238 24.0791 18.3118 23.7247C17.9151 23.2742 17.1125 23.0508 16.5345 23.23L16.2608 23.3148L15.8878 22.9367C15.3827 22.4251 15.306 22.3916 14.6357 22.3916H14.0742V21.4536V20.5156H15.0431H16.012L16.1258 20.7355C16.534 21.5241 17.562 21.871 18.3816 21.4968C19.2149 21.1164 19.6235 20.1814 19.3308 19.3246C19.2163 18.9895 18.7873 18.5012 18.461 18.3343C18.125 18.1626 17.4761 18.125 17.085 18.2545C16.7183 18.3759 16.3165 18.7205 16.1278 19.0752L15.9852 19.3431H15.0297H14.0742V17.8775V16.4119H17.0014H19.9286L20.2041 16.6909L20.4797 16.9698L20.3887 17.2625C20.1419 18.0566 20.5967 18.9975 21.3985 19.3512C21.7858 19.522 22.3915 19.5102 22.7999 19.3237C24.1668 18.6997 24.1699 16.7827 22.805 16.1409C22.4731 15.9848 21.92 15.9538 21.5324 16.0696L21.3044 16.1377L20.8415 15.6885L20.3786 15.2394H17.2264H14.0742V14.3014V13.3633H16.5209H18.9676L19.4268 12.9177L19.8861 12.472L20.1011 12.5428C20.4365 12.6532 21.1071 12.5946 21.4428 12.4256C22.5098 11.8884 22.7252 10.4089 21.8533 9.60746C21.1953 9.00263 20.2706 8.95285 19.5714 9.48458C19.0266 9.89883 18.7745 10.6539 18.9495 11.3469L19.0193 11.6234L18.739 11.9071L18.4587 12.1908H16.2665H14.0742V10.8425V9.49408H14.89C15.3386 9.49408 15.7932 9.47667 15.9 9.45533C16.0309 9.42924 16.2421 9.27576 16.5471 8.98516C16.9791 8.57361 17.0078 8.55672 17.1686 8.61816C17.2614 8.65357 17.4828 8.68705 17.6606 8.69262C18.626 8.72257 19.4017 8.03701 19.4693 7.09391C19.5074 6.56376 19.3796 6.18715 19.03 5.79952C18.6651 5.39483 18.3824 5.25987 17.8307 5.22698C17.4356 5.20347 17.3413 5.21925 17.0216 5.36229C16.2227 5.71979 15.7918 6.6181 16.0383 7.41248L16.1291 7.70525L15.8239 8.01338L15.5187 8.32158H14.7943H14.0699L14.0868 5.52222L14.1036 2.72286L14.2566 2.39773C14.5263 1.82431 14.9524 1.44952 15.5609 1.25055C15.9268 1.13089 16.5842 1.18424 16.9821 1.36586ZM4.41975 3.62558C3.9183 4.0723 4.47102 4.85366 5.07 4.54482C5.42664 4.36091 5.4902 3.91548 5.20099 3.62704C4.96682 3.39354 4.68073 3.39301 4.41975 3.62558ZM18.1355 6.5583C18.26 6.68241 18.3073 6.78624 18.3073 6.93485C18.3073 7.17622 18.0886 7.46928 17.867 7.52474C17.6383 7.58196 17.3233 7.41986 17.2123 7.18782C16.9323 6.60233 17.6731 6.09722 18.1355 6.5583ZM7.78337 6.80365C7.55966 6.89118 7.43337 7.09138 7.4319 7.36089C7.43078 7.57446 7.4633 7.63255 7.71675 7.86893C8.41369 8.51897 9.5708 8.79093 10.4918 8.5212C11.3029 8.28365 11.9577 7.75479 11.9577 7.33732C11.9577 6.80008 11.2886 6.57179 10.9212 6.98369C10.8607 7.05146 10.6525 7.18237 10.4585 7.27453C9.96265 7.51003 9.42728 7.51044 8.92983 7.27559C8.73582 7.18395 8.53739 7.06119 8.48888 7.00268C8.40534 6.90197 8.07533 6.73442 7.97633 6.74239C7.95104 6.74444 7.86421 6.77199 7.78337 6.80365ZM20.8628 10.3395C21.1483 10.4585 21.2807 10.7337 21.1929 11.0257C21.11 11.3018 20.9363 11.4287 20.6415 11.4287C20.3351 11.4287 20.0711 11.1751 20.0711 10.8808C20.0711 10.6433 20.2963 10.3365 20.4994 10.2973C20.5711 10.2835 20.6371 10.2686 20.6463 10.2642C20.6554 10.2598 20.7528 10.2937 20.8628 10.3395ZM6.60874 11.4929C6.19613 11.6606 6.12628 11.9206 6.3467 12.4683C6.76419 13.5056 6.3755 14.4498 5.33669 14.9218C4.81408 15.1593 4.67297 15.359 4.77886 15.7114C4.9015 16.1194 5.23551 16.2122 5.81009 15.9979C6.5159 15.7345 7.22201 15.0298 7.48658 14.3247C7.76438 13.5843 7.75168 12.7322 7.45289 12.0683C7.2186 11.5477 6.94033 11.3581 6.60874 11.4929ZM22.4862 17.3454C22.9136 17.7715 22.4735 18.4531 21.892 18.2657C21.6361 18.1832 21.4437 17.8623 21.5048 17.6198C21.6185 17.1681 22.1573 17.0174 22.4862 17.3454ZM7.00665 19.2199C6.85026 19.3592 6.81592 19.4331 6.81592 19.6303C6.81592 19.9922 7.00835 20.1546 7.52303 20.2273C8.02342 20.298 8.35149 20.451 8.65833 20.7571C9.07423 21.1717 9.16501 21.4366 9.16501 22.2353C9.16501 22.9228 9.16653 22.9304 9.32998 23.0708C9.50683 23.2226 9.81955 23.2594 10.0207 23.152C10.3291 22.9875 10.47 22.0488 10.2909 21.3525C9.94625 20.0122 8.74804 19.05 7.42349 19.05C7.25699 19.05 7.14699 19.0949 7.00665 19.2199ZM18.0767 19.5145C18.5697 20.0061 17.886 20.779 17.3265 20.3624C16.8764 20.0274 17.102 19.3431 17.6624 19.3431C17.8519 19.3431 17.9424 19.3805 18.0767 19.5145ZM17.2993 24.4098C17.6961 24.6144 17.6843 25.2451 17.2801 25.4287C16.7462 25.6713 16.227 25.1314 16.508 24.6259C16.6622 24.3484 17.001 24.256 17.2993 24.4098Z" fill="white"/>
</svg>
