<svg width="33" height="33" viewBox="0 0 33 33" fill="none" xmlns="http://www.w3.org/2000/svg">
<path fill-rule="evenodd" clip-rule="evenodd" d="M16.4771 0.0766119C15.8437 0.350885 15.6667 1.16192 16.1161 1.73061C16.3512 2.02786 16.5715 2.08292 17.9227 2.18171C19.6491 2.30795 21.2171 2.70145 22.6555 3.36968L23.6246 3.81974L24.325 3.11301C24.7103 2.72429 25.0255 2.36391 25.0255 2.31243C25.0255 1.96832 21.8717 0.672163 20.1958 0.327457C18.769 0.033934 16.8713 -0.0940999 16.4771 0.0766119ZM25.8079 5.64056C23.6982 7.89608 20.9486 11.4207 19.2015 14.109C18.8548 14.6425 18.5492 15.1063 18.5224 15.1395C18.4957 15.1728 18.1289 14.8662 17.7074 14.4583C17.2858 14.0504 16.6461 13.5425 16.2855 13.3299C15.6697 12.9667 15.545 12.9482 14.2217 13.0235C12.944 13.0964 12.8059 13.1331 12.731 13.4199C12.6708 13.6506 12.756 13.8147 13.0468 14.028C14.7374 15.2673 16.9737 18.0746 17.983 20.2245C18.2912 20.8809 18.5785 21.4187 18.6213 21.4196C18.6643 21.4204 18.9118 20.9797 19.1713 20.4404C20.722 17.2191 25.4093 10.208 28.7667 6.08823L30.1346 4.40947H28.547H26.9594L25.8079 5.64056ZM3.53974 4.99219C2.97892 5.22214 2.04331 5.59445 1.4605 5.81963C0.25278 6.28625 -0.123039 6.75929 0.0336978 7.61539C0.20573 8.55475 1.05278 8.91841 2.14222 8.52043C2.49517 8.3915 2.80806 8.31077 2.83748 8.34091C2.86691 8.37091 2.62729 8.95929 2.30507 9.64811C1.98286 10.3371 1.54455 11.5722 1.33115 12.3929C0.989414 13.7071 0.941636 14.1788 0.930419 16.3474C0.915998 19.1435 1.11119 20.311 1.96013 22.5092C6.16421 33.3942 19.6614 36.5136 27.9263 28.5103C32.3327 24.2434 34.0446 17.8382 32.3653 11.9018C31.9377 10.3901 30.9189 8.08022 30.7318 8.19855C30.6611 8.24347 30.3327 8.63921 30.0022 9.07808L29.4013 9.87598L29.8312 10.9241C31.0184 13.8186 31.2548 17.13 30.4884 20.1308C29.1626 25.3224 24.8666 29.5053 19.7512 30.5851C17.9657 30.962 15.3271 30.9038 13.5729 30.4488C10.8344 29.7385 8.70492 28.4485 6.73537 26.3065C2.76683 21.9907 1.79539 15.8592 4.21811 10.4175L4.66734 9.40846L4.81403 9.85613C5.27958 11.277 6.88395 11.5053 7.40179 10.2244C7.57295 9.80121 7.53129 9.55529 6.95255 7.56868C6.02684 4.39096 5.66763 4.11982 3.53974 4.99219ZM15.8485 5.9017C15.4346 6.3258 15.4407 7.64956 15.8592 8.19452C16.2284 8.67562 16.886 8.71875 17.3052 8.28928C17.6758 7.90966 17.7161 6.44145 17.3697 5.93498C17.0733 5.50134 16.2567 5.48358 15.8485 5.9017ZM10.9065 7.4887C10.5078 8.0077 10.5253 8.21765 11.0445 9.14493C11.5225 9.99879 11.9754 10.2359 12.5847 9.95148C13.1359 9.69422 13.2947 9.08972 12.9917 8.40165C12.4161 7.09355 11.5134 6.69841 10.9065 7.4887ZM7.49531 11.2482C7.24797 11.5282 7.17499 12.2646 7.36566 12.5572C7.57368 12.8763 8.71002 13.5121 9.07214 13.5121C9.82378 13.5121 10.3087 12.4541 9.83981 11.8375C9.52968 11.4298 8.66005 10.9765 8.18722 10.9759C7.93493 10.9756 7.63019 11.0954 7.49531 11.2482ZM6.23457 15.7505C6.07273 15.9162 5.94323 16.2478 5.94323 16.4966C5.94323 17.2269 6.3814 17.5411 7.3999 17.5411C8.41839 17.5411 8.85656 17.2269 8.85656 16.4966C8.85656 15.7663 8.41839 15.452 7.3999 15.452C6.72007 15.452 6.46122 15.5183 6.23457 15.7505ZM25.1965 15.7973C24.7911 16.2395 24.792 16.8487 25.1987 17.2369C25.4488 17.4756 25.7131 17.5411 26.4262 17.5411C27.2345 17.5411 27.3684 17.4977 27.6369 17.1479C27.8029 16.9317 27.9388 16.6386 27.9388 16.4966C27.9388 16.3545 27.8029 16.0614 27.6369 15.8452C27.3683 15.4953 27.2347 15.452 26.4242 15.452C25.6603 15.452 25.4622 15.5078 25.1965 15.7973ZM8.50783 20.7427C7.8165 21.178 7.69633 21.3593 7.69341 21.972C7.69094 22.5116 8.11599 22.9132 8.68962 22.9132C9.06967 22.9132 9.983 22.4114 10.2768 22.041C10.5507 21.696 10.4959 21.0112 10.1676 20.6748C9.78285 20.2807 9.20426 20.3045 8.50783 20.7427ZM23.4232 20.6748C23.0335 21.074 23.0503 21.7401 23.4596 22.1236C23.8953 22.5316 24.6484 22.9132 25.0182 22.9132C25.486 22.9132 25.8995 22.3863 25.8995 21.7907C25.8995 21.3271 25.8188 21.2128 25.2155 20.8208C24.419 20.3033 23.8325 20.2555 23.4232 20.6748ZM11.4443 23.6395C10.6086 24.657 10.5794 25.6279 11.3727 26.0173C11.9201 26.2861 12.4621 26.0039 12.8918 25.2262C13.3007 24.4863 13.3155 23.8997 12.9352 23.5101C12.5055 23.0699 11.8668 23.1252 11.4443 23.6395ZM20.6809 23.5569C20.3027 23.9694 20.2851 24.2599 20.5997 24.8979C20.9661 25.6407 21.3978 26.0469 21.8209 26.0469C22.2892 26.0469 22.8405 25.4864 22.8405 25.0104C22.8405 24.6324 22.3454 23.6948 21.9891 23.3982C21.6367 23.1048 21.0278 23.1787 20.6809 23.5569ZM15.8592 24.7986C15.4651 25.3118 15.4391 26.6104 15.8133 27.0838C16.1368 27.4932 16.9069 27.5354 17.3056 27.1656C17.7257 26.7761 17.7255 25.1344 17.3052 24.7039C16.886 24.2744 16.2284 24.3175 15.8592 24.7986Z" fill="white"/>
</svg>
