<svg width="32" height="32" viewBox="0 0 32 32" fill="none" xmlns="http://www.w3.org/2000/svg">
<path d="M2.28571 0H0V29.7143C0 30.3205 0.240816 30.9019 0.66947 31.3305C1.09812 31.7592 1.67951 32 2.28571 32H32V29.7143H2.28571V0Z" fill="white"/>
<path d="M32 8H24V10.2857H28.1029L19.4286 18.96L14.5257 14.0457C14.4195 13.9386 14.2931 13.8536 14.1538 13.7956C14.0145 13.7375 13.8652 13.7077 13.7143 13.7077C13.5634 13.7077 13.4141 13.7375 13.2748 13.7956C13.1355 13.8536 13.0091 13.9386 12.9029 14.0457L4.57144 22.3886L6.18287 24L13.7143 16.4686L18.6172 21.3829C18.7234 21.49 18.8498 21.575 18.9891 21.633C19.1283 21.691 19.2777 21.7209 19.4286 21.7209C19.5795 21.7209 19.7288 21.691 19.8681 21.633C20.0074 21.575 20.1338 21.49 20.24 21.3829L29.7143 11.8971V16H32V8Z" fill="white"/>
</svg>
