<svg width="34" height="34" viewBox="0 0 34 34" fill="none" xmlns="http://www.w3.org/2000/svg">
<path fill-rule="evenodd" clip-rule="evenodd" d="M28.8444 0.130302C28.3258 0.269956 27.7926 0.52511 27.392 0.82551C27.2366 0.94203 25.8422 2.40159 24.2932 4.06902C22.7443 5.73645 21.4449 7.11351 21.4059 7.12924C21.3668 7.14489 17.248 5.74793 12.253 4.02488L3.17118 0.891935H2.44178C1.79432 0.891935 1.67393 0.917365 1.3701 1.11834C1.07377 1.31438 0.962905 1.48882 0.544052 2.41826C-0.032456 3.69769 -0.0749965 3.87604 0.0715127 4.40114C0.302507 5.22954 0.40869 5.29801 8.10817 9.59003C11.9908 11.7544 15.2174 13.5567 15.2782 13.5951C15.3571 13.6449 14.558 14.5622 12.4823 16.8041C10.8837 18.5307 9.45159 20.0711 9.2999 20.2272L9.02406 20.511L7.22835 20.1209C5.23754 19.6884 5.04185 19.6694 4.76866 19.8815C4.57552 20.0315 3.89437 21.5849 3.89437 21.8753C3.89437 22.3024 4.14076 22.5019 6.20465 23.7452C7.7099 24.652 8.39497 25.1165 8.71122 25.445C8.98671 25.7311 9.58926 26.6379 10.3535 27.9163C11.0174 29.027 11.6326 29.9742 11.7207 30.0213C11.9874 30.1641 12.2666 30.1207 13.0971 29.8074C13.996 29.4683 14.2742 29.2269 14.2742 28.7858C14.2742 28.6257 14.1008 27.7014 13.889 26.7319L13.5037 24.9691L13.7826 24.6979C13.936 24.5488 15.4733 23.1196 17.1987 21.522C20.0055 18.9231 20.3466 18.6333 20.4376 18.77C20.4935 18.8541 22.2978 22.0797 24.4472 25.9381C28.7109 33.5922 28.7786 33.697 29.6092 33.9285C30.1345 34.075 30.3129 34.0324 31.5928 33.4561C32.5225 33.0374 32.697 32.9266 32.8932 32.6304C33.0942 32.3267 33.1196 32.2063 33.1196 31.5591V30.8299L29.9856 21.7513C28.262 16.7581 26.8645 12.64 26.8802 12.6002C26.8959 12.5604 28.3007 11.2346 30.0019 9.65407C31.7798 8.00238 33.2 6.61528 33.3416 6.39194C33.7087 5.81316 33.9374 5.1319 33.9885 4.46408C34.1992 1.71234 31.4795 -0.579024 28.8444 0.130302Z" fill="white"/>
</svg>
